<?xml version="1.0" encoding="UTF-8" standalone="no"?>
<!-- Created with Inkscape (http://www.inkscape.org/) -->

<svg
   xmlns:dc="http://purl.org/dc/elements/1.1/"
   xmlns:cc="http://creativecommons.org/ns#"
   xmlns:rdf="http://www.w3.org/1999/02/22-rdf-syntax-ns#"
   xmlns:svg="http://www.w3.org/2000/svg"
   xmlns="http://www.w3.org/2000/svg"
   xmlns:sodipodi="http://sodipodi.sourceforge.net/DTD/sodipodi-0.dtd"
   xmlns:inkscape="http://www.inkscape.org/namespaces/inkscape"
   width="64px"
   height="64px"
   id="svg6776"
   version="1.1"
   inkscape:version="0.48.2 r9819"
   sodipodi:docname="awf.svg">
  <defs
     id="defs6778">
    <inkscape:perspective
       sodipodi:type="inkscape:persp3d"
       inkscape:vp_x="8.8300158 : 32.17192 : 1"
       inkscape:vp_y="0 : 1000 : 0"
       inkscape:vp_z="79.993783 : 32.17192 : 1"
       inkscape:persp3d-origin="44.411899 : 21.505253 : 1"
       id="perspective3039" />
    <inkscape:perspective
       sodipodi:type="inkscape:persp3d"
       inkscape:vp_x="-4.6781317 : 27.977049 : 1"
       inkscape:vp_y="0 : 1113.6214 : 0"
       inkscape:vp_z="70.601266 : 19.270555 : 1"
       inkscape:persp3d-origin="31.494259 : 7.3919264 : 1"
       id="perspective6801" />
    <inkscape:perspective
       sodipodi:type="inkscape:persp3d"
       inkscape:vp_x="18.361843 : 30.175901 : 1"
       inkscape:vp_y="0 : 288.4738 : 0"
       inkscape:vp_z="43.615905 : 30.175901 : 1"
       inkscape:persp3d-origin="30.988873 : 27.098847 : 1"
       id="perspective6801-6" />
  </defs>
  <sodipodi:namedview
     id="base"
     pagecolor="#ffffff"
     bordercolor="#666666"
     borderopacity="1.0"
     inkscape:pageopacity="0.0"
     inkscape:pageshadow="2"
     inkscape:zoom="5.5"
     inkscape:cx="-0.53792603"
     inkscape:cy="38.591531"
     inkscape:current-layer="layer1"
     showgrid="true"
     inkscape:document-units="px"
     inkscape:grid-bbox="true"
     inkscape:window-width="1366"
     inkscape:window-height="722"
     inkscape:window-x="0"
     inkscape:window-y="0"
     inkscape:window-maximized="1">
    <inkscape:grid
       type="xygrid"
       id="grid6784"
       empspacing="8"
       visible="true"
       enabled="true"
       snapvisiblegridlinesonly="true" />
  </sodipodi:namedview>
  <metadata
     id="metadata6781">
    <rdf:RDF>
      <cc:Work
         rdf:about="">
        <dc:format>image/svg+xml</dc:format>
        <dc:type
           rdf:resource="http://purl.org/dc/dcmitype/StillImage" />
        <dc:title />
      </cc:Work>
    </rdf:RDF>
  </metadata>
  <g
     id="layer1"
     inkscape:label="Layer 1"
     inkscape:groupmode="layer">
    <path
       style="fill:#364e59;fill-opacity:1;fill-rule:nonzero;stroke:none"
       d="m 2,33 c 1.490712,-0.745356 6,-1 6,-1 l 48,0 c 0,0 4.509288,0.254644 6,1 1.490712,0.745356 2,3 2,3 0,4 0,8 0,12 -23.4997,0 -42.628367,0 -64,0 l 0,0 c 0,-4 0,-8 0,-12 0,0 0.509288,-2.254644 2,-3 z"
       id="rect6791-0"
       inkscape:connector-curvature="0"
       sodipodi:nodetypes="zcczcccccz" />
    <path
       style="fill:#ffffff;fill-opacity:1;fill-rule:nonzero;stroke:none"
       d="m 10,10 c 1.490712,-1.490712 6,-2 6,-2 l 32,0 c 0,0 4.509288,0.509288 6,2 1.490712,1.490712 2,6 2,6 L 56,32 8,32 8,16 c 0,0 0.509288,-4.509288 2,-6 z"
       id="rect6786"
       inkscape:connector-curvature="0"
       sodipodi:nodetypes="zcczccccz" />
    <path
       style="fill:#364e59;fill-opacity:1;fill-rule:nonzero;stroke:none"
       d="m 62,63 c -1.490712,0.745356 -6,1 -6,1 L 8,64 C 8,64 3.490712,63.745356 2,63 0.50928802,62.254644 0,60 0,60 0,56 0,52 0,48 c 23.4997,0 42.628367,0 64,0 l 0,0 c 0,4 0,8 0,12 0,0 -0.509288,2.254644 -2,3 z"
       id="rect6791"
       inkscape:connector-curvature="0"
       sodipodi:nodetypes="zcczcccccz" />
    <text
       xml:space="preserve"
       style="font-size:16px;font-style:normal;font-variant:normal;font-weight:bold;font-stretch:normal;line-height:125%;letter-spacing:0px;word-spacing:0px;fill:#ffffff;fill-opacity:1;stroke:none;font-family:Linux Biolinum Keyboard;-inkscape-font-specification:Linux Biolinum Keyboard Bold"
       x="24"
       y="24"
       id="text6797"
       sodipodi:linespacing="125%"><tspan
         sodipodi:role="line"
         id="tspan6799"
         x="24"
         y="24" /></text>
    <g
       sodipodi:type="inkscape:box3d"
       style="fill:#364e59;fill-opacity:1;fill-rule:nonzero;stroke:none"
       id="g6803"
       inkscape:perspectiveID="#perspective6801"
       inkscape:corner0="0.52738274 : 0.040440581 : 0 : 1"
       inkscape:corner7="-0.2 : 0.0041337959 : 0.26414956 : 1">
      <path
         sodipodi:type="inkscape:box3dside"
         id="path6813"
         style="fill:#afafde;fill-rule:evenodd;stroke:none"
         inkscape:box3dsidetype="13"
         d="M 19.004466,45.982933 40.537357,56 48,53.054312 26.612072,45.710178 z" />
      <path
         sodipodi:type="inkscape:box3dside"
         id="path6805"
         style="fill:#353564;fill-rule:evenodd;stroke:none"
         inkscape:box3dsidetype="6"
         d="m 19.004466,18.110709 0,27.872224 7.607606,-0.272755 0,-23.762649 z" />
      <path
         sodipodi:type="inkscape:box3dside"
         id="path6815"
         style="fill:#e9e9ff;fill-rule:evenodd;stroke:none"
         inkscape:box3dsidetype="11"
         d="M 26.612072,21.947529 48,13.049077 48,53.054312 26.612072,45.710178 z" />
      <path
         sodipodi:type="inkscape:box3dside"
         id="path6807"
         style="fill:#4d4d9f;fill-rule:evenodd;stroke:none"
         inkscape:box3dsidetype="5"
         d="M 19.004466,18.110709 40.537357,2.7855573 48,13.049077 26.612072,21.947529 z" />
      <path
         sodipodi:type="inkscape:box3dside"
         id="path6811"
         style="fill:#99ccff;fill-rule:evenodd;stroke:none"
         inkscape:box3dsidetype="14"
         d="M 40.537357,2.7855573 40.537357,56 48,53.054312 48,13.049077 z" />
      <path
         sodipodi:type="inkscape:box3dside"
         id="path6809"
         style="fill:#0099ff;fill-rule:evenodd;stroke:none"
         inkscape:box3dsidetype="3"
         d="M 19.004466,18.110709 40.537357,2.7855573 40.537357,56 19.004466,45.982933 z" />
    </g>
    <path
       style="fill:none;stroke:#000000;stroke-width:0.1;stroke-linecap:butt;stroke-linejoin:miter;stroke-miterlimit:4;stroke-opacity:1;stroke-dasharray:none"
       d="m 26,27 8,-5 0,16 -8,-3 z"
       inkscape:connector-curvature="0"
       sodipodi:nodetypes="ccccc"
       id="path3057" />
    <path
       style="fill:none;stroke:#000000;stroke-width:0.1;stroke-linecap:butt;stroke-linejoin:miter;stroke-opacity:1;stroke-miterlimit:4;stroke-dasharray:none"
       d="m 26,27 6,0 0,8 -6,0 z"
       id="path4015"
       inkscape:connector-curvature="0" />
    <path
       style="fill:none;stroke:#000000;stroke-width:0.1;stroke-linecap:butt;stroke-linejoin:miter;stroke-opacity:1;stroke-miterlimit:4;stroke-dasharray:none"
       d="m 32,27 2,-1"
       id="path4017"
       inkscape:connector-curvature="0" />
    <path
       style="fill:none;stroke:#000000;stroke-width:0.1;stroke-linecap:butt;stroke-linejoin:miter;stroke-miterlimit:4;stroke-opacity:1;stroke-dasharray:none"
       d="m 32,35 2,1"
       id="path4019"
       inkscape:connector-curvature="0"
       sodipodi:nodetypes="cc" />
    <path
       style="fill:#99ccff;fill-opacity:1;fill-rule:nonzero;stroke:none"
       d="m 26.206536,31.045816 0,-3.818182 2.818181,0 2.818182,0 0,3.818182 0,3.818181 -2.818182,0 -2.818181,0 0,-3.818181 z"
       id="path4022"
       inkscape:connector-curvature="0" />
    <path
       style="fill:none;stroke:#000000;stroke-width:0.1;stroke-linecap:butt;stroke-linejoin:miter;stroke-opacity:1;stroke-miterlimit:4;stroke-dasharray:none"
       d="m 32,32 2,0"
       id="path4036"
       inkscape:connector-curvature="0" />
    <path
       style="fill:#364e59;fill-opacity:1;fill-rule:nonzero;stroke:none"
       d="m 32.888354,35.265796 -0.681818,-0.359944 0,-1.359293 0,-1.359293 0.818181,0 0.818182,0 0,1.727273 c 0,0.95 -0.06136,1.723657 -0.136363,1.719237 -0.075,-0.0044 -0.443182,-0.170011 -0.818182,-0.36798 z"
       id="path4038"
       inkscape:connector-curvature="0" />
    <path
       style="fill:#ffffff;fill-opacity:1;fill-rule:nonzero;stroke:none"
       d="m 32.206536,29.463689 0,-2.359941 0.720029,-0.367332 c 0.396016,-0.202032 0.764198,-0.367332 0.818182,-0.367332 0.05398,0 0.09815,1.227273 0.09815,2.727273 l 0,2.727273 -0.818182,0 -0.818181,0 0,-2.359941 z"
       id="path4040"
       inkscape:connector-curvature="0" />
    <path
       style="fill:#badaff;fill-opacity:1;fill-rule:nonzero;stroke:none"
       d="m 26.585324,26.84221 c 0.14646,-0.139831 7.100741,-4.473126 7.178688,-4.473126 0.04339,0 0.07889,0.801138 0.07889,1.780306 l 0,1.780306 -1.004028,0.492421 c -0.952656,0.467227 -1.140263,0.492422 -3.666666,0.492422 -1.464452,0 -2.628548,-0.03255 -2.586881,-0.07233 z"
       id="path4042"
       inkscape:connector-curvature="0" />
    <path
       style="fill:#badaff;fill-opacity:1;fill-rule:nonzero;stroke:none"
       d="m 30.335315,36.4865 -3.416675,-1.299234 2.416675,-0.05379 c 2.311327,-0.05145 2.462249,-0.03215 3.46213,0.442522 l 1.045454,0.496312 0,0.875661 c 0,0.481613 -0.02045,0.867133 -0.04545,0.856711 -0.025,-0.01042 -1.582959,-0.603603 -3.46213,-1.318181 l 0,0 z"
       id="path4044"
       inkscape:connector-curvature="0" />
  </g>
</svg>
